<svg width="1272.9" height="792" xmlns="http://www.w3.org/2000/svg"><g fill="#fff"><g stroke="none" color="#000"><path d="M654.77 10.492C650.631 3.414 644.228 0 636.425 0c-8.585 0-14.406 3.747-18.345 10.492-156.89 270.8-235.76 446.17-235.76 527.36 0 46.05 11.175 88.685 33.958 127.66 22.883 39.138 53.869 69.865 92.898 92.516 39.031 22.65 81.582 33.975 127.25 33.975 45.666 0 88.219-11.325 127.25-33.975 39.038-22.65 69.724-53.544 92.507-92.516 22.883-39.138 34.35-81.606 34.35-127.66-.001-81.189-78.301-256.89-235.76-527.36zm164.33 633.53c-19.128 32.393-44.967 57.624-77.285 76.527-32.484 18.986-67.525 28.479-105.39 28.479-38.255 0-73.688-9.492-106.17-28.479-32.31-18.902-57.916-44.051-76.894-76.527-18.886-32.31-28.104-67.866-28.104-106.17 0-21.484 7.303-52.295 21.859-92.848 14.723-41.054 33.85-85.188 56.991-132.32 46.733-95.346 90.168-175.7 132.32-247.9 42.152 72.197 85.271 152.72 131.94 247.9 23.208 47.298 42.311 91.35 56.982 132.32 14.598 40.637 22.251 71.363 22.251 92.848 0 38.305-9.368 73.779-28.496 106.17z" style="font-feature-settings:normal;font-variant-alternates:normal;font-variant-caps:normal;font-variant-east-asian:normal;font-variant-ligatures:normal;font-variant-numeric:normal;font-variant-position:normal;font-variation-settings:normal;inline-size:0;isolation:auto;mix-blend-mode:normal;shape-margin:0;shape-padding:0;text-decoration-color:#000;text-decoration-line:none;text-decoration-style:solid;text-indent:0;text-orientation:mixed;text-transform:none;white-space:normal"/><path d="M636.43-.5c-8.73 0-14.771 3.88-18.777 10.74v.002c-78.452 135.41-137.4 246.96-176.74 334.83-39.34 87.867-59.09 152.02-59.09 192.78 0 46.131 11.2 88.862 34.027 127.91 22.925 39.209 53.979 70.003 93.078 92.695 39.105 22.693 81.75 34.043 127.5 34.043 45.749 0 88.395-11.35 127.5-34.043 39.11-22.692 69.866-53.654 92.689-92.695 22.926-39.211 34.418-81.775 34.418-127.91 0-40.755-19.608-105-58.877-192.91-39.269-87.909-98.216-199.46-176.95-334.71-4.217-7.212-10.828-10.74-18.777-10.74zm0 1c7.657 0 13.853 3.3 17.914 10.244h-.002c78.724 135.22 137.66 246.75 176.9 334.61 39.246 87.857 58.791 152.06 58.791 192.5 0 45.967-11.441 88.338-34.281 127.4-22.742 38.903-53.36 69.728-92.326 92.336h-.002c-38.955 22.607-81.413 33.908-127 33.908-45.584 0-88.04-11.301-127-33.908-38.959-22.61-69.876-53.269-92.717-92.336-22.739-38.895-33.89-81.433-33.89-127.4 0-40.433 19.684-104.56 59.001-192.37 39.317-87.815 98.25-199.35 176.69-334.74l.002-.002C622.381 4.114 627.984.5 636.422.5zm0 63.295l-.432.738c-42.158 72.206-85.6 152.58-132.34 247.93-23.147 47.143-42.28 91.293-57.012 132.37-14.565 40.58-21.889 71.42-21.889 93.018 0 38.386 9.241 74.037 28.172 106.42 19.02 32.548 44.697 57.766 77.074 76.707 32.558 19.03 68.086 28.547 106.42 28.547 37.948 0 73.084-9.518 105.64-28.547 32.385-18.942 58.294-44.24 77.465-76.705 19.173-32.468 28.564-68.039 28.564-106.43 0-21.604-7.675-52.355-22.28-93.016h.001c-14.679-40.992-33.79-85.06-57.004-132.37-46.67-95.189-89.796-175.73-131.96-247.93l-.431-.738zm0 2c42.009 71.997 84.985 152.26 131.49 247.11v.002c23.202 47.285 42.298 91.319 56.961 132.27v.002c14.59 40.614 22.221 71.31 22.221 92.678 0 38.223-9.343 73.602-28.426 105.92-19.086 32.32-44.857 57.486-77.107 76.35-32.411 18.944-67.356 28.41-105.14 28.41-38.172 0-73.51-9.467-105.92-28.41-32.243-18.863-57.779-43.944-76.715-76.348-18.841-32.233-28.035-67.694-28.035-105.92 0-21.371 7.283-52.152 21.83-92.68 14.715-41.032 33.834-85.15 56.969-132.27 46.57-95.013 89.859-175.12 131.87-247.11z" style="font-feature-settings:normal;font-variant-alternates:normal;font-variant-caps:normal;font-variant-east-asian:normal;font-variant-ligatures:normal;font-variant-numeric:normal;font-variant-position:normal;font-variation-settings:normal;inline-size:0;isolation:auto;mix-blend-mode:normal;shape-margin:0;shape-padding:0;text-decoration-color:#000;text-decoration-line:none;text-decoration-style:solid;text-indent:0;text-orientation:mixed;text-transform:none;white-space:normal"/><path d="M717.23 389.96c-8.885 7.494-10.268 21.567-2.34 30.395 1.84 2.081 8.103 9.409 19.511 28.146 5.763 9.41 10.384 19.569 14.447 30.395 8.036 21.567 15.73 51.046 10.534 78.109-7.687 40.054-35.399 75.111-85.479 104.17-10.426 6.079-14.007 17.986-7.812 28.562 4.339 7.328 10.151 11.325 18.354 11.325 3.506 0 7.02-.833 10.925-2.415 62.063-35.474 97.429-80.024 106.56-134.23 15.064-89.435-51.578-168.96-54.26-172.12-7.86-9.327-21.367-10.077-30.443-2.332z" style="font-feature-settings:normal;font-variant-alternates:normal;font-variant-caps:normal;font-variant-east-asian:normal;font-variant-ligatures:normal;font-variant-numeric:normal;font-variant-position:normal;font-variation-settings:normal;inline-size:0;isolation:auto;mix-blend-mode:normal;shape-margin:0;shape-padding:0;text-decoration-color:#000;text-decoration-line:none;text-decoration-style:solid;text-indent:0;text-orientation:mixed;text-transform:none;white-space:normal"/><path d="M732.95 384.23c-5.623-.395-11.402 1.39-16.039 5.346-9.101 7.676-10.512 22.065-2.389 31.11l-.004-.001c1.827 2.066 8.064 9.357 19.46 28.074v.002c5.74 9.374 10.35 19.503 14.405 30.309 8.02 21.525 15.678 50.933 10.512 77.84-7.655 39.889-35.242 74.819-85.24 103.83v.002c-10.628 6.197-14.312 18.456-7.992 29.246l.002.002c4.398 7.427 10.418 11.57 18.783 11.57 3.585 0 7.168-.853 11.113-2.452l.031-.013.03-.016c62.149-35.523 97.645-80.212 106.81-134.59 15.112-89.72-51.66-169.33-54.371-172.53-4.017-4.766-9.484-7.343-15.107-7.738zm-.078.984c5.363.376 10.579 2.838 14.422 7.399l.002.002c2.652 3.13 69.164 82.568 54.148 171.72-9.105 54.035-44.328 98.44-106.28 133.86-3.854 1.558-7.294 2.37-10.713 2.37-8.04 0-13.642-3.85-17.922-11.077l-.002-.002c-6.068-10.361-2.589-21.914 7.633-27.875 50.162-29.11 78-64.292 85.719-104.51 5.226-27.22-2.505-56.768-10.557-78.377v-.002c-4.07-10.846-8.705-21.034-14.488-30.48v-.001c-11.42-18.756-17.71-26.119-19.562-28.215l-.004-.004c-7.732-8.61-6.378-22.366 2.29-29.678l.003-.002c4.439-3.788 9.95-5.5 15.314-5.125z" style="font-feature-settings:normal;font-variant-alternates:normal;font-variant-caps:normal;font-variant-east-asian:normal;font-variant-ligatures:normal;font-variant-numeric:normal;font-variant-position:normal;font-variation-settings:normal;inline-size:0;isolation:auto;mix-blend-mode:normal;shape-margin:0;shape-padding:0;text-decoration-color:#000;text-decoration-line:none;text-decoration-style:solid;text-indent:0;text-orientation:mixed;text-transform:none;white-space:normal"/></g><g color="#000"><path d="M711.3 154.48L434.92 447.36M702.64 146.31L426.26 439.19l17.312 16.338 276.38-292.88-17.312-16.338zM732.28 212.23l-335.66 355.7M718.05 198.81l-335.66 355.7 28.445 26.844 335.66-355.7-28.447-26.844zM744.39 236.72L404.7 596.69" style="font-feature-settings:normal;font-variant-alternates:normal;font-variant-caps:normal;font-variant-east-asian:normal;font-variant-ligatures:normal;font-variant-numeric:normal;font-variant-position:normal;font-variation-settings:normal;inline-size:0;isolation:auto;mix-blend-mode:normal;shape-margin:0;shape-padding:0;text-decoration-color:#000;text-decoration-line:none;text-decoration-style:solid;text-indent:0;text-orientation:mixed;text-transform:none;white-space:normal"/><path d="M729.99 223.14L390.3 583.11l28.787 27.164 339.69-359.97-28.787-27.166zM744.39 248.72L406.17 607.13" style="font-feature-settings:normal;font-variant-alternates:normal;font-variant-caps:normal;font-variant-east-asian:normal;font-variant-ligatures:normal;font-variant-numeric:normal;font-variant-position:normal;font-variation-settings:normal;inline-size:0;isolation:auto;mix-blend-mode:normal;shape-margin:0;shape-padding:0;text-decoration-color:#000;text-decoration-line:none;text-decoration-style:solid;text-indent:0;text-orientation:mixed;text-transform:none;white-space:normal"/><path d="M730.06 235.2L391.84 593.61l28.662 27.049 338.22-358.41L730.06 235.2z" style="font-feature-settings:normal;font-variant-alternates:normal;font-variant-caps:normal;font-variant-east-asian:normal;font-variant-ligatures:normal;font-variant-numeric:normal;font-variant-position:normal;font-variation-settings:normal;inline-size:0;isolation:auto;mix-blend-mode:normal;shape-margin:0;shape-padding:0;text-decoration-color:#000;text-decoration-line:none;text-decoration-style:solid;text-indent:0;text-orientation:mixed;text-transform:none;white-space:normal"/></g><g><path d="M306.578 95.124c-31.376 0-42.23-7.872-48.315-13.958-6.085-6.111-13.97-16.945-13.97-48.317 0-1.196-.126-4.563-3.872-4.563-3.712 0-3.859 3.367-3.859 4.563 0 31.373-7.89 42.207-13.975 48.317-6.103 6.086-16.954 13.958-48.315 13.958-1.2 0-4.558.138-4.558 3.88 0 3.716 3.358 3.85 4.558 3.85 31.36 0 42.21 7.894 48.315 13.984 6.085 6.09 13.975 16.945 13.975 48.318 0 1.2.147 4.558 3.859 4.558 3.746 0 3.871-3.358 3.871-4.558 0-31.374 7.886-42.23 13.971-48.318 6.086-6.098 16.937-13.984 48.315-13.984 1.196 0 4.566-.116 4.566-3.862 0-3.716-3.37-3.867-4.566-3.867zM219.897 206.72c-43.928 0-59.122-11.022-67.642-19.542-8.52-8.556-19.56-23.723-19.56-67.646 0-1.674-.175-6.387-5.42-6.387-5.197 0-5.402 4.713-5.402 6.387 0 43.924-11.046 59.092-19.566 67.646-8.545 8.52-23.736 19.542-67.643 19.542-1.68 0-6.38.193-6.38 5.432 0 5.203 4.7 5.39 6.38 5.39 43.905 0 59.096 11.052 67.643 19.578 8.52 8.526 19.566 23.723 19.566 67.646 0 1.68.205 6.381 5.402 6.381 5.245 0 5.42-4.7 5.42-6.38 0-43.925 11.04-59.123 19.56-67.647 8.52-8.538 23.711-19.578 67.642-19.578 1.674 0 6.393-.163 6.393-5.408 0-5.202-4.719-5.414-6.393-5.414z" color="#000" style="font-feature-settings:normal;font-variant-alternates:normal;font-variant-caps:normal;font-variant-east-asian:normal;font-variant-ligatures:normal;font-variant-numeric:normal;font-variant-position:normal;font-variation-settings:normal;inline-size:0;isolation:auto;mix-blend-mode:normal;shape-margin:0;shape-padding:0;text-decoration-color:#000;text-decoration-line:none;text-decoration-style:solid;text-indent:0;text-orientation:mixed;text-transform:none;white-space:normal"/></g></g></svg>