<?xml version="1.0" encoding="UTF-8"?>
<svg width="1272.9" height="792" version="1.1" viewBox="0 0 1272.9 792" xml:space="preserve" xmlns="http://www.w3.org/2000/svg" xmlns:cc="http://creativecommons.org/ns#" xmlns:dc="http://purl.org/dc/elements/1.1/" xmlns:rdf="http://www.w3.org/1999/02/22-rdf-syntax-ns#"><metadata><rdf:RDF><cc:Work rdf:about=""><dc:format>image/svg+xml</dc:format><dc:type rdf:resource="http://purl.org/dc/dcmitype/StillImage"/><dc:title/></cc:Work></rdf:RDF></metadata>
<g transform="translate(240.43)" fill="#fff">
	<g fill="#fff" shape-rendering="auto">
		<path d="m414.34 10.492c-4.139-7.078-10.542-10.492-18.345-10.492-8.585 0-14.406 3.747-18.345 10.492-156.89 270.8-235.76 446.17-235.76 527.36 0 46.05 11.175 88.685 33.958 127.66 22.883 39.138 53.869 69.865 92.898 92.516 39.031 22.65 81.582 33.975 127.25 33.975 45.666 0 88.219-11.325 127.25-33.975 39.038-22.65 69.724-53.544 92.507-92.516 22.883-39.138 34.35-81.606 34.35-127.66-1e-3 -81.189-78.301-256.89-235.76-527.36zm164.33 633.53c-19.128 32.393-44.967 57.624-77.285 76.527-32.484 18.986-67.525 28.479-105.39 28.479-38.255 0-73.688-9.492-106.17-28.479-32.31-18.902-57.916-44.051-76.894-76.527-18.886-32.31-28.104-67.866-28.104-106.17 0-21.484 7.303-52.295 21.859-92.848 14.723-41.054 33.85-85.188 56.991-132.32 46.733-95.346 90.168-175.7 132.32-247.9 42.152 72.197 85.271 152.72 131.94 247.9 23.208 47.298 42.311 91.35 56.982 132.32 14.598 40.637 22.251 71.363 22.251 92.848 0 38.305-9.368 73.779-28.496 106.17z" color="#000000" color-rendering="auto" dominant-baseline="auto" image-rendering="auto" solid-color="#000000" stop-color="#000000" style="font-feature-settings:normal;font-variant-alternates:normal;font-variant-caps:normal;font-variant-east-asian:normal;font-variant-ligatures:normal;font-variant-numeric:normal;font-variant-position:normal;font-variation-settings:normal;inline-size:0;isolation:auto;mix-blend-mode:normal;shape-margin:0;shape-padding:0;text-decoration-color:#000000;text-decoration-line:none;text-decoration-style:solid;text-indent:0;text-orientation:mixed;text-transform:none;white-space:normal"/>
		<path d="m476.8 389.96c-8.885 7.494-10.268 21.567-2.34 30.395 1.84 2.081 8.103 9.409 19.511 28.146 5.763 9.41 10.384 19.569 14.447 30.395 8.036 21.567 15.73 51.046 10.534 78.109-7.687 40.054-35.399 75.111-85.479 104.17-10.426 6.079-14.007 17.986-7.812 28.562 4.339 7.328 10.151 11.325 18.354 11.325 3.506 0 7.02-0.833 10.925-2.415 62.063-35.474 97.429-80.024 106.56-134.23 15.064-89.435-51.578-168.96-54.26-172.12-7.86-9.327-21.367-10.077-30.443-2.332z" color="#000000" color-rendering="auto" dominant-baseline="auto" image-rendering="auto" solid-color="#000000" stop-color="#000000" style="font-feature-settings:normal;font-variant-alternates:normal;font-variant-caps:normal;font-variant-east-asian:normal;font-variant-ligatures:normal;font-variant-numeric:normal;font-variant-position:normal;font-variation-settings:normal;inline-size:0;isolation:auto;mix-blend-mode:normal;shape-margin:0;shape-padding:0;text-decoration-color:#000000;text-decoration-line:none;text-decoration-style:solid;text-indent:0;text-orientation:mixed;text-transform:none;white-space:normal"/>
	</g>
</g>















</svg>
