<?xml version="1.0" encoding="UTF-8"?>
<svg id="_x32_" width="450" height="280" version="1.1" viewBox="0 0 900 560" xml:space="preserve" xmlns="http://www.w3.org/2000/svg" xmlns:cc="http://creativecommons.org/ns#" xmlns:dc="http://purl.org/dc/elements/1.1/" xmlns:rdf="http://www.w3.org/1999/02/22-rdf-syntax-ns#"><metadata><rdf:RDF><cc:Work rdf:about=""><dc:format>image/svg+xml</dc:format><dc:type rdf:resource="http://purl.org/dc/dcmitype/StillImage"/><dc:title/></cc:Work></rdf:RDF></metadata>
<style type="text/css">
	.st0{fill:#4B4B4B;}
</style>

<g transform="translate(0,48)" fill="#fff"><g transform="translate(194,-24)">
	<path d="m474.01 89.302-200.13-85.629c-5.661-2.438-11.675-3.673-17.876-3.673-6.191 0-12.195 1.235-17.876 3.673l-200.13 85.629c-16.74 7.161-27.564 23.558-27.564 41.777v249.85c0 18.21 10.824 34.606 27.564 41.777l200.14 85.628c5.681 2.429 11.685 3.663 17.866 3.663 6.18 0 12.186-1.234 17.876-3.663l200.13-85.628c16.739-7.171 27.563-23.567 27.563-41.777v-249.85c0-18.218-10.824-34.616-27.563-41.776zm-432.98 291.63v-249.85c0-1.313 0.176-2.616 0.539-3.899l205.78 88.048v263.78l-197.31-84.423c-5.475-2.341-9.011-7.709-9.011-13.655zm420.94 13.655-197.3 84.423v-263.78l205.78-88.048c0.363 1.283 0.538 2.586 0.538 3.899v249.85c0 5.946-3.536 11.314-9.011 13.655zm-205.96-363.99c2.018 0 3.987 0.401 5.828 1.195l193.78 82.906-199.6 85.403-199.6-85.403 193.77-82.906c1.852-0.794 3.82-1.195 5.838-1.195z" color="#000000" color-rendering="auto" dominant-baseline="auto" fill="#fff" image-rendering="auto" shape-rendering="auto" solid-color="#000000" stop-color="#000000" style="font-feature-settings:normal;font-variant-alternates:normal;font-variant-caps:normal;font-variant-east-asian:normal;font-variant-ligatures:normal;font-variant-numeric:normal;font-variant-position:normal;font-variation-settings:normal;inline-size:0;isolation:auto;mix-blend-mode:normal;shape-margin:0;shape-padding:0;text-decoration-color:#000000;text-decoration-line:none;text-decoration-style:solid;text-indent:0;text-orientation:mixed;text-transform:none;white-space:normal"/>
<g fill-rule="evenodd" shape-rendering="auto"><path transform="matrix(.97922 -.2028 .54366 .8393 0 0)" d="m-9.4056 148.61h317.93v16.468h-317.93z" color="#000000" color-rendering="auto" dominant-baseline="auto" image-rendering="auto" solid-color="#000000" stop-color="#000000" style="font-feature-settings:normal;font-variant-alternates:normal;font-variant-caps:normal;font-variant-east-asian:normal;font-variant-ligatures:normal;font-variant-numeric:normal;font-variant-position:normal;font-variation-settings:normal;inline-size:0;isolation:auto;mix-blend-mode:normal;shape-margin:0;shape-padding:0;text-decoration-color:#000000;text-decoration-line:none;text-decoration-style:solid;text-indent:0;text-orientation:mixed;text-transform:none;white-space:normal"/><path transform="matrix(.97922 -.2028 .54366 .8393 0 0)" d="m24.072 176.87h317.93v16.468h-317.93z" color="#000000" color-rendering="auto" dominant-baseline="auto" image-rendering="auto" solid-color="#000000" stop-color="#000000" style="font-feature-settings:normal;font-variant-alternates:normal;font-variant-caps:normal;font-variant-east-asian:normal;font-variant-ligatures:normal;font-variant-numeric:normal;font-variant-position:normal;font-variation-settings:normal;inline-size:0;isolation:auto;mix-blend-mode:normal;shape-margin:0;shape-padding:0;text-decoration-color:#000000;text-decoration-line:none;text-decoration-style:solid;text-indent:0;text-orientation:mixed;text-transform:none;white-space:normal"/><path transform="matrix(.97922 -.2028 .54366 .8393 0 0)" d="m36.536 186.34h317.93v16.468h-317.93z" color="#000000" color-rendering="auto" dominant-baseline="auto" image-rendering="auto" solid-color="#000000" stop-color="#000000" style="font-feature-settings:normal;font-variant-alternates:normal;font-variant-caps:normal;font-variant-east-asian:normal;font-variant-ligatures:normal;font-variant-numeric:normal;font-variant-position:normal;font-variation-settings:normal;inline-size:0;isolation:auto;mix-blend-mode:normal;shape-margin:0;shape-padding:0;text-decoration-color:#000000;text-decoration-line:none;text-decoration-style:solid;text-indent:0;text-orientation:mixed;text-transform:none;white-space:normal"/><path transform="matrix(.97922 -.2028 .54366 .8393 0 0)" d="m45.462 198.97h317.93v16.468h-317.93z" color="#000000" color-rendering="auto" dominant-baseline="auto" image-rendering="auto" solid-color="#000000" stop-color="#000000" style="font-feature-settings:normal;font-variant-alternates:normal;font-variant-caps:normal;font-variant-east-asian:normal;font-variant-ligatures:normal;font-variant-numeric:normal;font-variant-position:normal;font-variation-settings:normal;inline-size:0;isolation:auto;mix-blend-mode:normal;shape-margin:0;shape-padding:0;text-decoration-color:#000000;text-decoration-line:none;text-decoration-style:solid;text-indent:0;text-orientation:mixed;text-transform:none;white-space:normal"/></g></g><g transform="matrix(.19531 0 0 .19531 120 -28)"><g fill="#fff">
	<path d="m495.47 241.97c-113.59 0-152.88-28.5-174.91-50.531-22.031-22.125-50.578-61.344-50.578-174.92 0-4.328-0.453-16.516-14.016-16.516-13.438 0-13.969 12.188-13.969 16.516 0 113.58-28.563 152.8-50.594 174.92-22.094 22.031-61.375 50.531-174.91 50.531-4.344 0-16.5 0.5-16.5 14.047 0 13.453 12.156 13.938 16.5 13.938 113.53 0 152.81 28.578 174.91 50.625 22.032 22.046 50.594 61.343 50.594 174.92 0 4.344 0.531 16.5 13.969 16.5 13.563 0 14.016-12.156 14.016-16.5 0-113.58 28.547-152.88 50.578-174.92 22.031-22.078 61.313-50.625 174.91-50.625 4.328 0 16.531-0.422 16.531-13.984 0-13.453-12.203-14-16.531-14z" color="#000000" color-rendering="auto" dominant-baseline="auto" fill="#fff" image-rendering="auto" shape-rendering="auto" solid-color="#000000" stop-color="#000000" style="font-feature-settings:normal;font-variant-alternates:normal;font-variant-caps:normal;font-variant-east-asian:normal;font-variant-ligatures:normal;font-variant-numeric:normal;font-variant-position:normal;font-variation-settings:normal;inline-size:0;isolation:auto;mix-blend-mode:normal;shape-margin:0;shape-padding:0;text-decoration-color:#000000;text-decoration-line:none;text-decoration-style:solid;text-indent:0;text-orientation:mixed;text-transform:none;white-space:normal"/>
</g></g><g transform="matrix(.27344 0 0 .27344 20 32)"><g fill="#fff"><path d="m495.47 241.97c-113.59 0-152.88-28.5-174.91-50.531-22.031-22.125-50.578-61.344-50.578-174.92 0-4.328-0.453-16.516-14.016-16.516-13.438 0-13.969 12.188-13.969 16.516 0 113.58-28.563 152.8-50.594 174.92-22.094 22.031-61.375 50.531-174.91 50.531-4.344 0-16.5 0.5-16.5 14.047 0 13.453 12.156 13.938 16.5 13.938 113.53 0 152.81 28.578 174.91 50.625 22.032 22.046 50.594 61.343 50.594 174.92 0 4.344 0.531 16.5 13.969 16.5 13.563 0 14.016-12.156 14.016-16.5 0-113.58 28.547-152.88 50.578-174.92 22.031-22.078 61.313-50.625 174.91-50.625 4.328 0 16.531-0.422 16.531-13.984 0-13.453-12.203-14-16.531-14z" color="#000000" color-rendering="auto" dominant-baseline="auto" fill="#fff" image-rendering="auto" shape-rendering="auto" solid-color="#000000" stop-color="#000000" style="font-feature-settings:normal;font-variant-alternates:normal;font-variant-caps:normal;font-variant-east-asian:normal;font-variant-ligatures:normal;font-variant-numeric:normal;font-variant-position:normal;font-variation-settings:normal;inline-size:0;isolation:auto;mix-blend-mode:normal;shape-margin:0;shape-padding:0;text-decoration-color:#000000;text-decoration-line:none;text-decoration-style:solid;text-indent:0;text-orientation:mixed;text-transform:none;white-space:normal"/></g></g></g><style type="text/css">

	.st0{fill:#4B4B4B;}

</style></svg>
