<svg id="_x32_" width="512" height="512" version="1.1" xml:space="preserve" xmlns="http://www.w3.org/2000/svg"><style></style><g fill="#fff" color="#000"><path d="M256.04 273.77a38.178 38.178 0 0019.016-5.109c18.156-10.5 24.406-33.828 13.922-52.031-6.781-11.75-19.438-19.031-33.016-19.031a38.092 38.092 0 00-19.016 5.109c-18.172 10.516-24.438 33.828-13.922 52.031 6.781 11.734 19.437 19.031 33.016 19.031zM296.63 306.08c-3.625-6.297-11.328-8.891-18.031-6.109 0 0 1.031.391-4.734 1.969a68.353 68.353 0 01-17.875 2.375 68.395 68.395 0 01-17.875-2.375c-5.766-1.578-4.719-1.969-4.719-1.969-6.703-2.781-14.438-.188-18.031 6.109l-80.156 138.81a14.443 14.443 0 00-1.313 11.438 14.492 14.492 0 007.516 8.75s7.219 4.438 18.297 8.891c30.484 12.297 63.234 18.703 96.281 18.766a259.113 259.113 0 0096.297-18.766c11.078-4.453 18.297-8.891 18.297-8.891 3.594-1.766 6.328-4.922 7.5-8.75s.688-7.969-1.297-11.438zM510.51 199.93a258.755 258.755 0 00-31.906-92.781c-16.547-28.609-38.469-53.719-64.375-74.016-9.422-7.344-16.875-11.391-16.875-11.391-3.281-2.25-7.391-3.016-11.328-2.109a14.437 14.437 0 00-9.266 6.844l-80.125 138.81c-3.625 6.266-2.016 14.266 3.734 18.672 0 0-.188-1.109 4.078 3.109a70.52 70.52 0 0111 14.281 69.755 69.755 0 016.859 16.672c1.531 5.797.672 5.078.672 5.078.938 7.203 7.031 12.594 14.313 12.594h160.28a14.444 14.444 0 0014.391-15.468c0-.001.234-8.485-1.453-20.298zM189.02 223.1s-.859.719.672-5.078a68.506 68.506 0 016.859-16.672c3.063-5.281 6.766-10.063 11-14.281s4.063-3.109 4.063-3.109c5.766-4.406 7.375-12.406 3.75-18.672l-80.157-138.81a14.395 14.395 0 00-9.266-6.844 14.383 14.383 0 00-11.328 2.109s-7.453 4.047-16.844 11.391C71.863 53.431 49.941 78.54 33.363 107.15a259.648 259.648 0 00-31.906 92.781C-.199 211.744.035 220.228.035 220.228c-.281 3.984 1.063 7.922 3.828 10.859a14.388 14.388 0 0010.563 4.609h160.28c7.266.001 13.375-5.39 14.313-12.593z" style="font-feature-settings:normal;font-variant-alternates:normal;font-variant-caps:normal;font-variant-east-asian:normal;font-variant-ligatures:normal;font-variant-numeric:normal;font-variant-position:normal;font-variation-settings:normal;inline-size:0;isolation:auto;mix-blend-mode:normal;shape-margin:0;shape-padding:0;text-decoration-color:#000;text-decoration-line:none;text-decoration-style:solid;text-indent:0;text-orientation:mixed;text-transform:none;white-space:normal"/></g></svg>