<?xml version="1.0" encoding="UTF-8"?>
<svg id="_x32_" width="512px" height="512px" version="1.1" viewBox="0 0 512 512" xml:space="preserve" xmlns="http://www.w3.org/2000/svg" xmlns:cc="http://creativecommons.org/ns#" xmlns:dc="http://purl.org/dc/elements/1.1/" xmlns:rdf="http://www.w3.org/1999/02/22-rdf-syntax-ns#"><metadata><rdf:RDF><cc:Work rdf:about=""><dc:format>image/svg+xml</dc:format><dc:type rdf:resource="http://purl.org/dc/dcmitype/StillImage"/><dc:title/></cc:Work></rdf:RDF></metadata>
<style type="text/css">

	.st0{fill:#4B4B4B;}

</style>
<g fill="#fff" shape-rendering="auto">
	<path d="m256.04 273.77c6.625 0 13.219-1.766 19.016-5.109 18.156-10.5 24.406-33.828 13.922-52.031-6.781-11.75-19.438-19.031-33.016-19.031-6.656 0-13.219 1.766-19.016 5.109-18.172 10.516-24.438 33.828-13.922 52.031 6.781 11.734 19.437 19.031 33.016 19.031z" color="#000000" color-rendering="auto" dominant-baseline="auto" image-rendering="auto" solid-color="#000000" stop-color="#000000" style="font-feature-settings:normal;font-variant-alternates:normal;font-variant-caps:normal;font-variant-east-asian:normal;font-variant-ligatures:normal;font-variant-numeric:normal;font-variant-position:normal;font-variation-settings:normal;inline-size:0;isolation:auto;mix-blend-mode:normal;shape-margin:0;shape-padding:0;text-decoration-color:#000000;text-decoration-line:none;text-decoration-style:solid;text-indent:0;text-orientation:mixed;text-transform:none;white-space:normal"/>
	<path d="m296.63 306.08c-3.625-6.297-11.328-8.891-18.031-6.109 0 0 1.031 0.391-4.734 1.969-5.766 1.563-11.781 2.375-17.875 2.375-6.109 0-12.094-0.813-17.875-2.375-5.766-1.578-4.719-1.969-4.719-1.969-6.703-2.781-14.438-0.188-18.031 6.109l-80.156 138.81c-2 3.469-2.484 7.609-1.313 11.438 1.188 3.828 3.891 6.984 7.516 8.75 0 0 7.219 4.438 18.297 8.891 30.484 12.297 63.234 18.703 96.281 18.766 33.063-0.063 65.781-6.469 96.297-18.766 11.078-4.453 18.297-8.891 18.297-8.891 3.594-1.766 6.328-4.922 7.5-8.75s0.688-7.969-1.297-11.438z" color="#000000" color-rendering="auto" dominant-baseline="auto" image-rendering="auto" solid-color="#000000" stop-color="#000000" style="font-feature-settings:normal;font-variant-alternates:normal;font-variant-caps:normal;font-variant-east-asian:normal;font-variant-ligatures:normal;font-variant-numeric:normal;font-variant-position:normal;font-variation-settings:normal;inline-size:0;isolation:auto;mix-blend-mode:normal;shape-margin:0;shape-padding:0;text-decoration-color:#000000;text-decoration-line:none;text-decoration-style:solid;text-indent:0;text-orientation:mixed;text-transform:none;white-space:normal"/>
	<path d="m510.51 199.93c-4.594-32.563-15.422-64.125-31.906-92.781-16.547-28.609-38.469-53.719-64.375-74.016-9.422-7.344-16.875-11.391-16.875-11.391-3.281-2.25-7.391-3.016-11.328-2.109-3.906 0.891-7.25 3.375-9.266 6.844l-80.125 138.81c-3.625 6.266-2.016 14.266 3.734 18.672 0 0-0.188-1.109 4.078 3.109 4.203 4.219 7.938 9.016 11 14.281 3.031 5.313 5.328 10.906 6.859 16.672 1.531 5.797 0.672 5.078 0.672 5.078 0.938 7.203 7.031 12.594 14.313 12.594h160.28c4 0 7.828-1.672 10.563-4.609s4.109-6.875 3.828-10.859c0-1e-3 0.234-8.485-1.453-20.298z" color="#000000" color-rendering="auto" dominant-baseline="auto" image-rendering="auto" solid-color="#000000" stop-color="#000000" style="font-feature-settings:normal;font-variant-alternates:normal;font-variant-caps:normal;font-variant-east-asian:normal;font-variant-ligatures:normal;font-variant-numeric:normal;font-variant-position:normal;font-variation-settings:normal;inline-size:0;isolation:auto;mix-blend-mode:normal;shape-margin:0;shape-padding:0;text-decoration-color:#000000;text-decoration-line:none;text-decoration-style:solid;text-indent:0;text-orientation:mixed;text-transform:none;white-space:normal"/>
	<path d="m189.02 223.1s-0.859 0.719 0.672-5.078c1.531-5.766 3.797-11.359 6.859-16.672 3.063-5.281 6.766-10.063 11-14.281s4.063-3.109 4.063-3.109c5.766-4.406 7.375-12.406 3.75-18.672l-80.157-138.81c-2-3.469-5.359-5.953-9.266-6.844-3.906-0.906-8.016-0.141-11.328 2.109 0 0-7.453 4.047-16.844 11.391-25.906 20.297-47.828 45.406-64.406 74.016-16.469 28.656-27.281 60.219-31.906 92.781-1.656 11.813-1.422 20.297-1.422 20.297-0.281 3.984 1.063 7.922 3.828 10.859 2.719 2.938 6.547 4.609 10.563 4.609h160.28c7.266 1e-3 13.375-5.39 14.313-12.593z" color="#000000" color-rendering="auto" dominant-baseline="auto" image-rendering="auto" solid-color="#000000" stop-color="#000000" style="font-feature-settings:normal;font-variant-alternates:normal;font-variant-caps:normal;font-variant-east-asian:normal;font-variant-ligatures:normal;font-variant-numeric:normal;font-variant-position:normal;font-variation-settings:normal;inline-size:0;isolation:auto;mix-blend-mode:normal;shape-margin:0;shape-padding:0;text-decoration-color:#000000;text-decoration-line:none;text-decoration-style:solid;text-indent:0;text-orientation:mixed;text-transform:none;white-space:normal"/>
</g>
</svg>
