<svg id="_x32_" width="450" height="280" version="1.1" viewBox="0 0 900 560" xml:space="preserve" xmlns="http://www.w3.org/2000/svg"><style>.st0{fill:#4b4b4b}</style><g fill="#fff"><path d="M474.01 89.302 273.88 3.673A44.93 44.93 0 0 0 256.004 0a45.037 45.037 0 0 0-17.876 3.673L37.998 89.302a45.383 45.383 0 0 0-27.564 41.777v249.85a45.403 45.403 0 0 0 27.564 41.777l200.14 85.628a45.172 45.172 0 0 0 17.866 3.663c6.18 0 12.186-1.234 17.876-3.663l200.13-85.628a45.403 45.403 0 0 0 27.563-41.777v-249.85a45.382 45.382 0 0 0-27.563-41.776zM41.03 380.932v-249.85c0-1.313.176-2.616.539-3.899l205.78 88.048v263.78l-197.31-84.423a14.84 14.84 0 0 1-9.011-13.655zm420.94 13.655-197.3 84.423V215.23l205.78-88.048c.363 1.283.538 2.586.538 3.899v249.85a14.84 14.84 0 0 1-9.011 13.655zM256.01 30.597c2.018 0 3.987.401 5.828 1.195l193.78 82.906-199.6 85.403-199.6-85.403 193.77-82.906a14.744 14.744 0 0 1 5.838-1.195z" color="#000" style="font-feature-settings:normal;font-variant-alternates:normal;font-variant-caps:normal;font-variant-east-asian:normal;font-variant-ligatures:normal;font-variant-numeric:normal;font-variant-position:normal;font-variation-settings:normal;inline-size:0;isolation:auto;mix-blend-mode:normal;shape-margin:0;shape-padding:0;text-decoration-color:#000;text-decoration-line:none;text-decoration-style:solid;text-indent:0;text-orientation:mixed;text-transform:none;white-space:normal" transform="translate(194 24)"/><g fill-rule="evenodd"><path transform="matrix(.97922 -.2028 .54366 .8393 194 24)" d="M-9.406 148.61h317.93v16.468H-9.406zm33.478 28.26h317.93v16.468H24.072z" color="#000" style="font-feature-settings:normal;font-variant-alternates:normal;font-variant-caps:normal;font-variant-east-asian:normal;font-variant-ligatures:normal;font-variant-numeric:normal;font-variant-position:normal;font-variation-settings:normal;inline-size:0;isolation:auto;mix-blend-mode:normal;shape-margin:0;shape-padding:0;text-decoration-color:#000;text-decoration-line:none;text-decoration-style:solid;text-indent:0;text-orientation:mixed;text-transform:none;white-space:normal"/><path transform="matrix(.97922 -.2028 .54366 .8393 194 24)" d="M36.536 186.34h317.93v16.468H36.536z" color="#000" style="font-feature-settings:normal;font-variant-alternates:normal;font-variant-caps:normal;font-variant-east-asian:normal;font-variant-ligatures:normal;font-variant-numeric:normal;font-variant-position:normal;font-variation-settings:normal;inline-size:0;isolation:auto;mix-blend-mode:normal;shape-margin:0;shape-padding:0;text-decoration-color:#000;text-decoration-line:none;text-decoration-style:solid;text-indent:0;text-orientation:mixed;text-transform:none;white-space:normal"/><path transform="matrix(.97922 -.2028 .54366 .8393 194 24)" d="M45.462 198.97h317.93v16.468H45.462z" color="#000" style="font-feature-settings:normal;font-variant-alternates:normal;font-variant-caps:normal;font-variant-east-asian:normal;font-variant-ligatures:normal;font-variant-numeric:normal;font-variant-position:normal;font-variation-settings:normal;inline-size:0;isolation:auto;mix-blend-mode:normal;shape-margin:0;shape-padding:0;text-decoration-color:#000;text-decoration-line:none;text-decoration-style:solid;text-indent:0;text-orientation:mixed;text-transform:none;white-space:normal"/></g><path transform="matrix(.92517 -.37956 0 1 194 24)" d="M449.04 517.17h35.667v39.272H449.04zm-55.64.6h35.667v39.272H393.4zm55.64-59.87h35.667v39.272H449.04z" color="#000" style="font-feature-settings:normal;font-variant-alternates:normal;font-variant-caps:normal;font-variant-east-asian:normal;font-variant-ligatures:normal;font-variant-numeric:normal;font-variant-position:normal;font-variation-settings:normal;inline-size:0;isolation:auto;mix-blend-mode:normal;shape-margin:0;shape-padding:0;text-decoration-color:#000;text-decoration-line:none;text-decoration-style:solid;text-indent:0;text-orientation:mixed;text-transform:none;white-space:normal" fill-rule="evenodd"/><path d="M495.47 241.97c-113.59 0-152.88-28.5-174.91-50.531-22.031-22.125-50.578-61.344-50.578-174.92 0-4.328-.453-16.516-14.016-16.516-13.438 0-13.969 12.188-13.969 16.516 0 113.58-28.563 152.8-50.594 174.92-22.094 22.031-61.375 50.531-174.91 50.531-4.344 0-16.5.5-16.5 14.047 0 13.453 12.156 13.938 16.5 13.938 113.53 0 152.81 28.578 174.91 50.625 22.032 22.046 50.594 61.343 50.594 174.92 0 4.344.531 16.5 13.969 16.5 13.563 0 14.016-12.156 14.016-16.5 0-113.58 28.547-152.88 50.578-174.92 22.031-22.078 61.313-50.625 174.91-50.625 4.328 0 16.531-.422 16.531-13.984 0-13.453-12.203-14-16.531-14z" color="#000" style="font-feature-settings:normal;font-variant-alternates:normal;font-variant-caps:normal;font-variant-east-asian:normal;font-variant-ligatures:normal;font-variant-numeric:normal;font-variant-position:normal;font-variation-settings:normal;inline-size:0;isolation:auto;mix-blend-mode:normal;shape-margin:0;shape-padding:0;text-decoration-color:#000;text-decoration-line:none;text-decoration-style:solid;text-indent:0;text-orientation:mixed;text-transform:none;white-space:normal" transform="translate(120 20) scale(.19531)"/><path d="M495.47 241.97c-113.59 0-152.88-28.5-174.91-50.531-22.031-22.125-50.578-61.344-50.578-174.92 0-4.328-.453-16.516-14.016-16.516-13.438 0-13.969 12.188-13.969 16.516 0 113.58-28.563 152.8-50.594 174.92-22.094 22.031-61.375 50.531-174.91 50.531-4.344 0-16.5.5-16.5 14.047 0 13.453 12.156 13.938 16.5 13.938 113.53 0 152.81 28.578 174.91 50.625 22.032 22.046 50.594 61.343 50.594 174.92 0 4.344.531 16.5 13.969 16.5 13.563 0 14.016-12.156 14.016-16.5 0-113.58 28.547-152.88 50.578-174.92 22.031-22.078 61.313-50.625 174.91-50.625 4.328 0 16.531-.422 16.531-13.984 0-13.453-12.203-14-16.531-14z" color="#000" style="font-feature-settings:normal;font-variant-alternates:normal;font-variant-caps:normal;font-variant-east-asian:normal;font-variant-ligatures:normal;font-variant-numeric:normal;font-variant-position:normal;font-variation-settings:normal;inline-size:0;isolation:auto;mix-blend-mode:normal;shape-margin:0;shape-padding:0;text-decoration-color:#000;text-decoration-line:none;text-decoration-style:solid;text-indent:0;text-orientation:mixed;text-transform:none;white-space:normal" transform="translate(20 80) scale(.27344)"/></g><path d="M724.61 439.89a10.001 10.001 0 0 0-4.918 1.34l-34.688 20.025a10.001 10.001 0 0 0-5 8.662v40.053a10.001 10.001 0 0 0 5 8.66l34.688 20.027a10.001 10.001 0 0 0 10 0l34.688-20.027a10.001 10.001 0 0 0 5-8.66v-40.053a10.001 10.001 0 0 0-5-8.662l-34.688-20.025a10.001 10.001 0 0 0-5.082-1.34zm.082 21.547 24.688 14.254v28.506l-24.688 14.254-24.688-14.254v-28.506l24.688-14.254zM820.42 343.37a10.001 10.001 0 0 0-4.918 1.338L765 373.866a10.001 10.001 0 0 0-5 8.66v58.314a10.001 10.001 0 0 0 5 8.66l50.502 29.158a10.001 10.001 0 0 0 10 0l50.504-29.158a10.001 10.001 0 0 0 5-8.66v-58.314a10.001 10.001 0 0 0-5-8.66l-50.504-29.158a10.001 10.001 0 0 0-5.082-1.338zm.082 21.545 40.504 23.385v46.768l-40.504 23.385L780 435.068V388.3l40.502-23.385z" color="#000" style="font-feature-settings:normal;font-variant-alternates:normal;font-variant-caps:normal;font-variant-east-asian:normal;font-variant-ligatures:normal;font-variant-numeric:normal;font-variant-position:normal;font-variation-settings:normal;inline-size:0;isolation:auto;mix-blend-mode:normal;shape-margin:0;shape-padding:0;text-decoration-color:#000;text-decoration-line:none;text-decoration-style:solid;text-indent:0;text-orientation:mixed;text-transform:none;white-space:normal" fill="#fff"/></svg>