<svg id="_x32_" width="450" height="280" version="1.1" viewBox="0 0 900 560" xml:space="preserve" xmlns="http://www.w3.org/2000/svg"><style></style><g fill="#fff" color="#000"><path d="M20.35 211.14h193.48a76.434 76.434 0 0054.236-22.472c13.858-13.83 22.49-33.096 22.482-54.246a76.568 76.568 0 00-22.482-54.246 76.505 76.505 0 00-54.236-22.472 76.513 76.513 0 00-54.246 22.472c-5.814 5.804-5.814 15.226-.018 21.03 5.822 5.813 15.235 5.813 21.039 0 8.549-8.522 20.194-13.757 33.226-13.757 13.021 0 24.666 5.235 33.216 13.757 8.522 8.55 13.738 20.204 13.757 33.216-.019 13.032-5.235 24.667-13.757 33.226-8.55 8.522-20.195 13.747-33.216 13.765H20.351c-8.219 0-14.877 6.649-14.877 14.859s6.658 14.868 14.877 14.868zM346.46 322.34H14.87c-8.209 0-14.867 6.658-14.867 14.859 0 8.21 6.658 14.868 14.867 14.868h331.59c10.046.018 19.018 4.032 25.63 10.616 6.567 6.612 10.598 15.574 10.598 25.63s-4.031 19.019-10.598 25.631c-6.612 6.576-15.584 10.608-25.63 10.608-10.056 0-19.028-4.032-25.621-10.608-5.814-5.812-15.236-5.812-21.04 0-5.795 5.804-5.795 15.226 0 21.03a65.936 65.936 0 0046.661 19.322 65.863 65.863 0 0046.651-19.322 65.782 65.782 0 0019.322-46.661 65.76 65.76 0 00-19.322-46.651c-11.884-11.911-28.477-19.34-46.651-19.322z" style="font-feature-settings:normal;font-variant-alternates:normal;font-variant-caps:normal;font-variant-east-asian:normal;font-variant-ligatures:normal;font-variant-numeric:normal;font-variant-position:normal;font-variation-settings:normal;inline-size:0;isolation:auto;mix-blend-mode:normal;shape-margin:0;shape-padding:0;text-decoration-color:#000;text-decoration-line:none;text-decoration-style:solid;text-indent:0;text-orientation:mixed;text-transform:none;white-space:normal" transform="translate(139.88 -30.121) scale(1.2114)"/><path d="M485.33 128.92c-16.428-16.456-39.286-26.678-64.375-26.678-25.107 0-47.956 10.221-64.384 26.678-5.823 5.804-5.823 15.226 0 21.02 5.812 5.813 15.216 5.813 21.02 0 11.14-11.112 26.375-17.953 43.364-17.953 16.962 0 32.198 6.841 43.346 17.953 11.13 11.149 17.954 26.384 17.954 43.355 0 16.989-6.823 32.206-17.944 43.354-11.158 11.122-26.394 17.954-43.355 17.954H14.866c-8.209 0-14.867 6.677-14.867 14.886 0 8.201 6.658 14.859 14.867 14.859h406.09c25.089.019 47.947-10.212 64.375-26.66 16.449-16.437 26.67-39.295 26.67-64.392a90.882 90.882 0 00-26.669-64.376z" style="font-feature-settings:normal;font-variant-alternates:normal;font-variant-caps:normal;font-variant-east-asian:normal;font-variant-ligatures:normal;font-variant-numeric:normal;font-variant-position:normal;font-variation-settings:normal;inline-size:0;isolation:auto;mix-blend-mode:normal;shape-margin:0;shape-padding:0;text-decoration-color:#000;text-decoration-line:none;text-decoration-style:solid;text-indent:0;text-orientation:mixed;text-transform:none;white-space:normal" transform="translate(139.88 -30.121) scale(1.2114)"/></g></svg>